<svg width="112" height="64" viewBox="0 0 112 64" fill="none" xmlns="http://www.w3.org/2000/svg">
<g clip-path="url(#clip0)">
<path d="M108.106 62.8407C108.312 62.5038 108.421 62.1183 108.421 61.7253C108.423 61.4253 108.365 61.1277 108.25 60.8498C108.135 60.5719 107.965 60.319 107.75 60.1057C107.536 59.8924 107.28 59.7229 106.999 59.6068C106.717 59.4908 106.415 59.4305 106.11 59.4294H104.386C104.262 59.0956 104.138 58.6885 104.022 58.2896C103.964 58.1023 103.914 57.9232 103.856 57.7523H104.08C104.693 57.7523 105.281 57.513 105.714 57.087C106.148 56.661 106.391 56.0832 106.391 55.4808C106.391 54.8784 106.148 54.3006 105.714 53.8746C105.281 53.4486 104.693 53.2093 104.08 53.2093H102.183C101.547 51.4695 101.037 49.6875 100.658 47.8767H102.498C102.812 47.8952 103.127 47.8503 103.424 47.7448C103.72 47.6392 103.991 47.4752 104.221 47.2628C104.45 47.0504 104.633 46.7942 104.758 46.5099C104.883 46.2255 104.947 45.919 104.947 45.6093C104.947 45.2995 104.883 44.9931 104.758 44.7087C104.633 44.4244 104.45 44.1681 104.221 43.9558C103.991 43.7434 103.72 43.5794 103.424 43.4738C103.127 43.3682 102.812 43.3234 102.498 43.3419H101.901C102.446 42.5761 102.735 41.6629 102.729 40.7285C102.679 39.5409 102.163 38.4186 101.29 37.596C100.417 36.7734 99.254 36.3141 98.0445 36.3141C96.835 36.3141 95.6723 36.7734 94.7992 37.596C93.9262 38.4186 93.4104 39.5409 93.3596 40.7285C93.3536 41.6629 93.6431 42.5761 94.188 43.3419H93.6164C93.3018 43.3234 92.9866 43.3682 92.6903 43.4738C92.394 43.5794 92.1227 43.7434 91.8933 43.9558C91.6639 44.1681 91.481 44.4244 91.3561 44.7087C91.2311 44.9931 91.1667 45.2995 91.1667 45.6093C91.1667 45.919 91.2311 46.2255 91.3561 46.5099C91.481 46.7942 91.6639 47.0504 91.8933 47.2628C92.1227 47.4752 92.394 47.6392 92.6903 47.7448C92.9866 47.8503 93.3018 47.8952 93.6164 47.8767H95.4556C95.0806 49.6884 94.5711 51.4707 93.9312 53.2093H92.034C91.421 53.2093 90.8331 53.4486 90.3996 53.8746C89.9661 54.3006 89.7226 54.8784 89.7226 55.4808C89.7226 56.0832 89.9661 56.661 90.3996 57.087C90.8331 57.513 91.421 57.7523 92.034 57.7523H92.2577C92.1997 57.9314 92.15 58.1023 92.092 58.2896C91.976 58.6885 91.8518 59.1038 91.7275 59.4294H89.9877C89.3754 59.4316 88.7887 59.6716 88.3557 60.0971C87.9227 60.5226 87.6785 61.0991 87.6763 61.7009C87.6803 62.0933 87.7889 62.4779 87.9911 62.8163H74.9511V61.6765C79.1052 61.0827 82.997 59.3245 86.1602 56.6125L86.3425 56.4415V56.1728C86.3425 48.6908 84.8927 35.005 75.1499 27.1811L74.9925 27.0915C70.8958 25.5009 66.617 24.4073 62.2508 23.835L62.1679 19.9759C64.1562 18.1929 65.0675 15.091 65.0675 10.5155C65.0675 3.88839 61.6625 -0.0683594 55.9544 -0.0683594C50.2463 -0.0683594 46.8413 3.88839 46.8413 10.5155C46.8413 15.1155 47.7526 18.1929 49.7327 19.9759L49.7078 23.9001C45.3421 24.4747 41.0635 25.5683 36.966 27.1567L36.8086 27.2462C27.0742 35.005 25.6244 48.7153 25.6244 56.1728V56.4171L25.7984 56.588C28.9746 59.3047 32.881 61.0631 37.0489 61.652V62.8163H17.1658C17.0995 58.656 16.2876 55.0493 14.7964 52.387C14.3194 51.4996 14.0772 50.5085 14.0922 49.505C14.7954 48.9814 15.3378 48.277 15.6594 47.4696C15.981 46.6622 16.0694 45.7831 15.9148 44.9295C15.7744 44.1833 15.451 43.4821 14.9725 42.8866C14.494 42.2911 13.8749 41.8192 13.1689 41.512C12.4629 41.2047 11.6913 41.0714 10.921 41.1234C10.1507 41.1755 9.40497 41.4114 8.74843 41.8108C8.09189 42.2101 7.54438 42.7608 7.15337 43.4151C6.76237 44.0694 6.53967 44.8075 6.50459 45.5655C6.46951 46.3235 6.6231 47.0785 6.95206 47.765C7.28101 48.4515 7.77539 49.0487 8.39234 49.505C8.4062 50.5084 8.1641 51.4992 7.68814 52.387C6.19691 55.0493 5.3933 58.6478 5.31874 62.8163H0V63.9723H112V62.8407H108.106ZM94.5277 40.7529C94.5265 40.1737 94.6736 39.6036 94.9554 39.095C95.2373 38.5863 95.6448 38.1555 96.1405 37.8423C96.6363 37.5291 97.2042 37.3434 97.7921 37.3025C98.38 37.2616 98.9689 37.3666 99.5046 37.608C100.04 37.8495 100.506 38.2195 100.858 38.684C101.21 39.1484 101.437 39.6925 101.519 40.2661C101.601 40.8396 101.535 41.4242 101.326 41.966C101.118 42.5077 100.774 42.9893 100.327 43.3663H95.7704C95.3829 43.0453 95.071 42.6452 94.8564 42.194C94.6418 41.7427 94.5297 41.251 94.5277 40.7529ZM92.4565 45.6378C92.4565 45.4889 92.4866 45.3414 92.5451 45.204C92.6036 45.0667 92.6893 44.9421 92.7972 44.8375C92.9052 44.733 93.0332 44.6506 93.1738 44.5951C93.3144 44.5396 93.4649 44.5121 93.6164 44.5143H102.481C102.782 44.5143 103.071 44.6318 103.284 44.8409C103.496 45.0501 103.616 45.3338 103.616 45.6296C103.616 45.9255 103.496 46.2092 103.284 46.4183C103.071 46.6275 102.782 46.745 102.481 46.745H93.6164C93.4653 46.7483 93.315 46.7218 93.1744 46.6672C93.0338 46.6126 92.9057 46.531 92.7977 46.4271C92.6897 46.3232 92.6038 46.1991 92.5452 46.0622C92.4867 45.9253 92.4565 45.7782 92.4565 45.6296V45.6378ZM96.5989 47.9092H99.4156C99.769 49.7218 100.265 51.5047 100.899 53.2419H95.0993C95.7439 51.502 96.2534 49.7166 96.6237 47.9011L96.5989 47.9092ZM90.8493 55.5134C90.8493 55.3669 90.8787 55.2219 90.9357 55.0865C90.9928 54.9512 91.0764 54.8282 91.1818 54.7247C91.2871 54.6211 91.4123 54.5389 91.55 54.4829C91.6877 54.4268 91.8353 54.398 91.9843 54.398H104.038C104.188 54.398 104.335 54.4268 104.473 54.4829C104.611 54.5389 104.736 54.6211 104.841 54.7247C104.946 54.8282 105.03 54.9512 105.087 55.0865C105.144 55.2219 105.173 55.3669 105.173 55.5134C105.173 55.6598 105.144 55.8049 105.087 55.9402C105.03 56.0755 104.946 56.1985 104.841 56.3021C104.736 56.4056 104.611 56.4878 104.473 56.5438C104.335 56.5999 104.188 56.6287 104.038 56.6287H92.0092C91.8594 56.6287 91.7112 56.5996 91.5729 56.5431C91.4347 56.4865 91.3092 56.4036 91.2037 56.2992C91.0982 56.1947 91.0147 56.0708 90.9582 55.9346C90.9016 55.7983 90.8731 55.6524 90.8742 55.5052L90.8493 55.5134ZM93.169 58.6478C93.2601 58.3385 93.3513 58.0372 93.4341 57.7848H102.547C102.63 58.0372 102.721 58.3385 102.812 58.6478C102.903 58.9572 102.978 59.2015 103.061 59.462H92.9453C93.0282 59.1933 93.111 58.9165 93.1939 58.6153L93.169 58.6478ZM73.7747 62.8407H62.5656C63.2384 62.1602 63.6157 61.2494 63.6177 60.3005V55.0819C63.9062 56.7759 64.6792 58.3544 65.8463 59.6329C66.6331 60.3973 67.5739 60.9914 68.6084 61.377C69.6428 61.7626 70.7479 61.9311 71.8527 61.8718C72.5154 61.8718 73.1533 61.8718 73.7747 61.7823V62.8407ZM48.0509 10.5807C48.0509 4.58855 50.9339 1.15286 55.971 1.15286C61.0081 1.15286 63.9243 4.58855 63.9243 10.5807C63.9243 17.8591 61.6294 20.8226 55.9959 20.8226C50.3623 20.8226 48.0509 17.8591 48.0509 10.5807ZM37.4797 28.1581C41.416 26.6526 45.5211 25.614 49.7078 25.0643V26.9776H50.8759L51.0085 20.847C52.5429 21.6431 54.2617 22.0331 55.9959 21.9787C57.7501 22.0517 59.4929 21.6698 61.0495 20.8715L61.1738 27.002H62.3502L62.3087 25.0887C66.4872 25.6396 70.5839 26.6781 74.512 28.1825C81.264 33.6291 85.1495 43.7408 85.1992 55.9611C81.4477 59.0279 76.7323 60.725 71.8527 60.7646C70.9058 60.8201 69.9576 60.6792 69.0698 60.3509C68.182 60.0227 67.3745 59.5146 66.6996 58.8595C65.606 57.736 64.3633 55.5297 64.4876 51.3449C68.05 50.832 74.1392 49.0491 76.8317 47.0463L76.1192 46.1263C75.2004 46.7612 74.2109 47.2911 73.1699 47.7057C72.2802 45.2541 71.0776 42.9233 69.5909 40.7692L68.6134 41.4042C70.0535 43.4894 71.2172 45.7465 72.0763 48.1209C69.4225 49.1155 66.6671 49.8253 63.858 50.2377L63.3609 50.311V50.7995C63.3609 50.9704 63.3609 51.1333 63.3609 51.3042C63.0749 50.6313 62.5926 50.0566 61.975 49.6524C61.3573 49.2482 60.6317 49.0326 59.8896 49.0328H52.1849C51.4379 49.0243 50.7052 49.2341 50.0798 49.6357C49.4544 50.0372 48.9644 50.6123 48.6722 51.288C48.6722 51.1088 48.6722 50.946 48.6722 50.7669V50.2784L48.1834 50.2214C45.3744 49.809 42.6189 49.0993 39.9651 48.1046C40.8268 45.7268 41.9993 43.469 43.4529 41.3879L42.4753 40.7529C40.9818 42.8981 39.7709 45.2207 38.8715 47.665C37.8305 47.2504 36.841 46.7205 35.9222 46.0856L35.2097 47.0055C37.8525 49.0246 43.9086 50.8076 47.5041 51.288C47.6367 55.4727 46.3857 57.679 45.3004 58.8025C44.6252 59.4571 43.8176 59.965 42.9299 60.2932C42.0422 60.6214 41.0942 60.7626 40.1473 60.7076C35.2661 60.6633 30.5496 58.9668 26.7925 55.9042C26.8505 43.7164 30.736 33.6047 37.4797 28.1581ZM38.217 61.8067C38.8467 61.8556 39.4846 61.8963 40.1473 61.8963C41.2539 61.9524 42.3601 61.78 43.3946 61.3901C44.4291 61.0003 45.3691 60.4017 46.1537 59.6329C47.3207 58.3511 48.0935 56.7701 48.3823 55.0737V60.3005C48.382 61.2482 48.7563 62.1589 49.4261 62.8407H38.217V61.8067ZM6.52001 62.8407C6.45631 59.4218 7.22015 56.037 8.74858 52.9651C9.31074 51.9052 9.59547 50.7245 9.57704 49.5294V48.8862L9.31193 48.7153C8.83982 48.4166 8.44623 48.0125 8.16325 47.536C7.88028 47.0594 7.71594 46.5239 7.68363 45.973C7.65132 45.4222 7.75196 44.8716 7.97735 44.3663C8.20273 43.8609 8.54648 43.4151 8.98055 43.0651C9.39637 42.7307 9.88272 42.4915 10.4043 42.3647C10.9259 42.238 11.4697 42.2269 11.9962 42.3323C12.6957 42.4636 13.3392 42.7979 13.8435 43.2921C14.3478 43.7863 14.6898 44.4177 14.8253 45.1047C14.9609 45.7918 14.8837 46.503 14.6039 47.1466C14.3241 47.7902 13.8544 48.3366 13.2554 48.7153L12.9903 48.8862V49.5294C12.9719 50.7245 13.2566 51.9052 13.8188 52.9651C15.2189 55.4645 15.9811 58.8676 16.0473 62.8407H6.52001ZM52.1435 62.8407C51.8041 62.8407 51.4679 62.775 51.1543 62.6473C50.8407 62.5197 50.5558 62.3326 50.3158 62.0967C50.0757 61.8608 49.8853 61.5808 49.7555 61.2726C49.6255 60.9644 49.5587 60.6341 49.5587 60.3005V52.729C49.5587 52.0546 49.8308 51.4076 50.3153 50.93C50.7998 50.4523 51.4572 50.1829 52.1435 50.1807H59.8482C60.5359 50.1807 61.1955 50.4492 61.6818 50.9271C62.1681 51.405 62.4413 52.0531 62.4413 52.729V60.3005C62.4391 60.975 62.1649 61.621 61.6789 62.0972C61.1928 62.5733 60.5345 62.8407 59.8482 62.8407H52.1435ZM89.9629 62.8407C89.8138 62.8407 89.6662 62.8118 89.5285 62.7558C89.3908 62.6997 89.2657 62.6176 89.1603 62.514C89.0549 62.4104 88.9713 62.2875 88.9143 62.1521C88.8572 62.0168 88.8279 61.8718 88.8279 61.7253C88.8279 61.5788 88.8572 61.4338 88.9143 61.2985C88.9713 61.1631 89.0549 61.0402 89.1603 60.9366C89.2657 60.833 89.3908 60.7509 89.5285 60.6948C89.6662 60.6388 89.8138 60.6099 89.9629 60.6099H106.11C106.411 60.6099 106.699 60.7274 106.912 60.9366C107.125 61.1458 107.245 61.4295 107.245 61.7253C107.245 62.0211 107.125 62.3048 106.912 62.514C106.699 62.7232 106.411 62.8407 106.11 62.8407H89.9629ZM53.1625 58.0291C52.9049 58.0291 52.6531 58.1043 52.439 58.2451C52.225 58.3859 52.0583 58.586 51.9601 58.82C51.8619 59.0541 51.8366 59.3115 51.8875 59.5597C51.9383 59.8078 52.063 60.0356 52.2458 60.214C52.4285 60.3924 52.661 60.5135 52.9139 60.5619C53.1667 60.6103 53.4285 60.5838 53.666 60.4858C53.9035 60.3878 54.1061 60.2228 54.248 60.0115C54.39 59.8002 54.4648 59.5523 54.4632 59.2991C54.4632 59.1317 54.4295 58.9658 54.364 58.8112C54.2986 58.6566 54.2026 58.5162 54.0817 58.3982C53.9608 58.2801 53.8174 58.1868 53.6596 58.1234C53.5019 58.0601 53.3329 58.028 53.1625 58.0291ZM53.0217 59.2991C53.0217 59.2668 53.0348 59.2357 53.0581 59.2128C53.0814 59.1899 53.113 59.177 53.1459 59.177C53.1789 59.177 53.2105 59.1899 53.2338 59.2128C53.2571 59.2357 53.2702 59.2668 53.2702 59.2991C53.2868 59.4294 53.0217 59.4294 53.0217 59.2991ZM58.8209 58.0291C58.563 58.0275 58.3104 58.1013 58.0952 58.2411C57.88 58.3809 57.712 58.5805 57.6126 58.8144C57.5131 59.0483 57.4866 59.3059 57.5366 59.5546C57.5865 59.8033 57.7105 60.0318 57.8929 60.2111C58.0753 60.3903 58.3079 60.5122 58.5609 60.5613C58.814 60.6104 59.0762 60.5844 59.3142 60.4866C59.5522 60.3889 59.7553 60.2238 59.8976 60.0123C60.0399 59.8009 60.115 59.5526 60.1133 59.2991C60.1133 58.9623 59.9772 58.6393 59.7348 58.4011C59.4924 58.1629 59.1637 58.0291 58.8209 58.0291ZM58.6966 59.2991C58.6987 59.2682 58.7128 59.2392 58.7358 59.218C58.7589 59.1968 58.7893 59.1851 58.8209 59.1852C58.8517 59.1852 58.8812 59.1972 58.9029 59.2185C58.9247 59.2399 58.9369 59.2689 58.9369 59.2991C58.9535 59.4294 58.7132 59.4294 58.7132 59.2991H58.6966ZM55.9793 55.2284C55.722 55.2284 55.4706 55.3034 55.2567 55.4438C55.0428 55.5843 54.8761 55.7839 54.7776 56.0175C54.6792 56.251 54.6534 56.508 54.7036 56.756C54.7538 57.0039 54.8777 57.2317 55.0596 57.4105C55.2415 57.5892 55.4732 57.711 55.7255 57.7603C55.9778 57.8096 56.2394 57.7843 56.477 57.6875C56.7147 57.5908 56.9178 57.427 57.0608 57.2168C57.2037 57.0066 57.28 56.7594 57.28 56.5066C57.2778 56.1718 57.1421 55.8512 56.902 55.6137C56.6619 55.3763 56.3365 55.2408 55.9959 55.2366L55.9793 55.2284ZM55.8633 56.5066C55.8632 56.4756 55.8752 56.4457 55.8967 56.423C55.9183 56.4003 55.9478 56.3866 55.9793 56.3845C55.9956 56.3845 56.0118 56.3877 56.0268 56.3938C56.0419 56.3999 56.0556 56.4089 56.0672 56.4203C56.0787 56.4316 56.0878 56.4451 56.0941 56.4599C56.1003 56.4747 56.1036 56.4906 56.1036 56.5066C56.1201 56.645 55.8799 56.645 55.8799 56.5148L55.8633 56.5066ZM58.8209 55.0005C59.0792 55.0037 59.3326 54.9313 59.5489 54.7924C59.7651 54.6536 59.9344 54.4546 60.0351 54.2209C60.1359 53.9872 60.1635 53.7292 60.1146 53.48C60.0656 53.2308 59.9422 53.0015 59.7601 52.8214C59.5781 52.6414 59.3456 52.5186 59.0923 52.4689C58.839 52.4192 58.5764 52.4447 58.3379 52.5422C58.0994 52.6397 57.8958 52.8048 57.7532 53.0164C57.6105 53.228 57.5352 53.4766 57.5368 53.7304C57.5368 54.0658 57.6718 54.3876 57.9124 54.6256C58.153 54.8635 58.4796 54.9983 58.8209 55.0005ZM58.8209 53.6083C58.8369 53.6082 58.8527 53.6114 58.8673 53.6177C58.8819 53.6239 58.8951 53.633 58.906 53.6445C58.9169 53.6559 58.9253 53.6695 58.9306 53.6843C58.9359 53.6991 58.938 53.7148 58.9369 53.7304C58.9369 53.8607 58.6966 53.8607 58.6966 53.7304C58.6966 53.7144 58.6999 53.6985 58.7061 53.6837C58.7124 53.6688 58.7215 53.6554 58.733 53.644C58.7446 53.6327 58.7583 53.6237 58.7734 53.6176C58.7884 53.6114 58.8046 53.6083 58.8209 53.6083ZM53.1459 52.4522C52.8894 52.4554 52.6396 52.5331 52.4279 52.6755C52.2162 52.8179 52.0521 53.0186 51.9561 53.2524C51.8602 53.4862 51.8368 53.7427 51.8889 53.9896C51.9409 54.2365 52.0661 54.4627 52.2486 54.6398C52.4312 54.817 52.6629 54.9371 52.9148 54.9851C53.1666 55.0331 53.4273 55.0069 53.664 54.9097C53.9007 54.8125 54.1029 54.6486 54.2451 54.4388C54.3873 54.229 54.4632 53.9825 54.4632 53.7304C54.4643 53.5622 54.4314 53.3955 54.3664 53.24C54.3015 53.0844 54.2057 52.9431 54.0847 52.8241C53.9637 52.7052 53.8199 52.6111 53.6616 52.5473C53.5033 52.4834 53.3336 52.4511 53.1625 52.4522H53.1459ZM53.0217 53.7304C53.0217 53.698 53.0348 53.6669 53.0581 53.644C53.0814 53.6211 53.113 53.6083 53.1459 53.6083C53.1789 53.6083 53.2105 53.6211 53.2338 53.644C53.2571 53.6669 53.2702 53.698 53.2702 53.7304C53.2868 53.8607 53.0217 53.8607 53.0217 53.7304ZM8.52489 59.0793H14.0342V60.2436H8.52489V59.0793Z" fill="url(#paint0_linear)"/>
</g>
<defs>
<linearGradient id="paint0_linear" x1="88.074" y1="87.5093" x2="26.1839" y2="24.5308" gradientUnits="userSpaceOnUse">
<stop stop-color="#BF1E8E"/>
<stop offset="0.5" stop-color="#ED1B30"/>
<stop offset="1" stop-color="#F4783D"/>
</linearGradient>
<clipPath id="clip0">
<rect width="112" height="70" fill="white"/>
</clipPath>
</defs>
</svg>
