<svg width="54" height="90" viewBox="0 0 54 90" fill="none" xmlns="http://www.w3.org/2000/svg">
<g clip-path="url(#clip0)">
<path d="M27 70.3889H33.9291V71.5316H20.0709V70.3889H27ZM13.7795 78.3395C13.2238 78.3416 12.6909 78.5659 12.295 78.9645C11.8992 79.363 11.6717 79.9042 11.6614 80.4721V89.9678H12.7795V80.4721C12.7795 80.201 12.8849 79.9411 13.0724 79.7494C13.26 79.5577 13.5143 79.4501 13.7795 79.4501C14.0447 79.4501 14.2991 79.5577 14.4866 79.7494C14.6742 79.9411 14.7795 80.201 14.7795 80.4721V89.9678H15.8976V80.4721C15.8874 79.9042 15.6599 79.363 15.264 78.9645C14.8681 78.5659 14.3353 78.3416 13.7795 78.3395ZM31.4095 78.3395C30.8537 78.3416 30.3209 78.5659 29.925 78.9645C29.5291 79.363 29.3016 79.9042 29.2913 80.4721V89.9678H30.4095V80.4721C30.4095 80.201 30.5148 79.9411 30.7023 79.7494C30.8899 79.5577 31.1442 79.4501 31.4095 79.4501C31.6747 79.4501 31.929 79.5577 32.1166 79.7494C32.3041 79.9411 32.4095 80.201 32.4095 80.4721V89.9678H33.5197V80.4721C33.5114 79.9049 33.2857 79.3638 32.8911 78.965C32.4965 78.5662 31.9644 78.3416 31.4095 78.3395ZM22.5906 78.3395C22.0342 78.3395 21.5002 78.5631 21.1038 78.9622C20.7075 79.3612 20.4807 79.9035 20.4724 80.4721V89.9678H21.5827V80.4721C21.5827 80.1957 21.6901 79.9306 21.8813 79.7352C22.0726 79.5397 22.3319 79.4299 22.6024 79.4299C22.8728 79.4299 23.1322 79.5397 23.3234 79.7352C23.5146 79.9306 23.622 80.1957 23.622 80.4721V89.9678H24.7402V80.4721C24.7298 79.8986 24.498 79.3526 24.0953 78.9531C23.6926 78.5536 23.1517 78.3331 22.5906 78.3395ZM40.2205 78.3395C39.6647 78.3416 39.1319 78.5659 38.736 78.9645C38.3401 79.363 38.1127 79.9042 38.1024 80.4721V89.9678H39.2205V80.4721C39.2205 80.201 39.3258 79.9411 39.5134 79.7494C39.7009 79.5577 39.9553 79.4501 40.2205 79.4501C40.4857 79.4501 40.74 79.5577 40.9276 79.7494C41.1151 79.9411 41.2205 80.201 41.2205 80.4721V89.9678H42.3386V80.4721C42.3283 79.9042 42.1009 79.363 41.705 78.9645C41.3091 78.5659 40.7762 78.3416 40.2205 78.3395ZM46.8819 78.6453V90H45.7638V78.6453C43.865 78.478 42.093 77.602 40.7859 76.1845C39.4788 74.767 38.7282 72.9073 38.6772 70.9603V70.3809L46.3622 70.5177V71.6604L39.8425 71.5397C40.0856 73.1885 40.9213 74.6855 42.1864 75.7384C43.4515 76.7914 45.0551 77.3247 46.6843 77.2342C48.3134 77.1437 49.8511 76.4359 50.9971 75.2491C52.143 74.0622 52.815 72.4814 52.8819 70.8154C52.8819 65.8905 48.7323 64.104 45.9449 64.104H8.05512C5.26772 64.104 1.11811 65.8905 1.11811 70.8154C1.16337 72.4979 1.82629 74.1014 2.97514 75.3074C4.12399 76.5133 5.6747 77.2334 7.31917 77.3247C8.96364 77.4159 10.5815 76.8715 11.8513 75.7998C13.1212 74.728 13.95 73.2072 14.1732 71.5397L7.65355 71.6604V70.5177L15.3386 70.3809V70.9603C15.2876 72.9073 14.5369 74.767 13.2298 76.1845C11.9227 77.602 10.1507 78.478 8.25197 78.6453V90H7.08662V78.6453C5.15726 78.4932 3.35528 77.6021 2.04129 76.1503C0.727302 74.6984 -0.00176094 72.7931 3.19408e-06 70.8154C3.19408e-06 65.0536 4.8189 62.9694 8.05512 62.9694H11.2047V56.5316H17.4488C17.9909 55.9788 18.4177 55.3194 18.7033 54.5933C18.9888 53.8671 19.1273 53.0893 19.1102 52.3068C19.1421 50.1623 18.3702 48.0864 16.9528 46.5048C11.7638 44.6298 7.00788 42.2398 4.6063 39.7451L4.3937 39.5279L4.4567 39.2301C4.92914 36.8159 5.8189 32.3176 7.6063 29.2435L7.67717 29.1067L7.81103 29.0343C12.0591 26.5939 16.6477 24.8326 21.4173 23.8116C21.0787 19.7076 20.6299 13.8572 20.7559 10.5579C20.874 5.55253 21.7795 0.804671 27.3701 0.104563C30.7638 -0.329986 35.6614 0.54716 38.4488 3.06594C39.0837 3.59643 39.5974 4.26246 39.9537 5.0173C40.3101 5.77215 40.5006 6.59753 40.5118 7.43557C40.5118 13.2054 40.2913 18.5568 37.5984 20.6652C36.4409 21.5745 34.9134 21.7757 33.063 21.2687L32.3937 21.0756L32.5276 23.7956C37.3264 24.8096 41.9428 26.5768 46.2126 29.0343L46.3465 29.1067L46.4173 29.2435C48.1811 32.3095 49.0709 36.8079 49.5669 39.2301L49.6299 39.5279L49.4173 39.7451C47.0551 42.2398 42.2598 44.6298 37.0709 46.4967C35.6401 48.0749 34.859 50.1556 34.8898 52.3068C34.862 53.0988 34.9938 53.8882 35.2769 54.626C35.56 55.3638 35.9883 56.0344 36.5354 56.596H42.7795V63.0338H45.9291C49.1654 63.0338 53.9843 65.118 53.9843 70.8798C53.9699 72.8489 53.2316 74.7405 51.9159 76.179C50.6002 77.6176 48.8033 78.498 46.8819 78.6453ZM45.5276 29.9517C41.6685 27.7573 37.5251 26.1317 33.2205 25.1233C36.063 34.78 29.2126 40.912 23.685 45.8851L22.4016 47.052C23.9764 47.4946 25.5512 47.8567 27 48.1867C30.2034 47.5014 33.3597 46.6036 36.4488 45.4989C41.3858 43.7285 45.9843 41.4753 48.3386 39.1738C47.9213 36.7838 47.0787 32.736 45.5276 29.9517ZM26.7717 40.0429V31.7221L21.8583 28.6883V28.3986C21.8583 28.3503 21.8583 28.1732 21.811 27.8916C21.748 32.5509 24 36.3573 26.7717 40.0429ZM27.8898 31.7542V40.2923C30.7008 37.2103 32.8661 33.7017 32.7953 29.324L27.8898 31.7542ZM22.8898 28.0042L27.3386 30.7483L31.6378 28.6158L31.2598 20.7054C29.5984 20.1341 27.9528 19.4822 27.8504 19.442L28.2598 18.3798C28.2598 18.3798 31.4095 19.6351 33.3543 20.1663C34.8661 20.5847 36.0394 20.456 36.9213 19.7559C39.2047 17.9694 39.3701 12.6904 39.3701 7.43557C39.3574 6.75841 39.1992 6.09238 38.9067 5.48466C38.6141 4.87695 38.1944 4.34242 37.6772 3.91894C35.1654 1.64963 30.5433 0.844907 27.4409 1.23922C22.9449 1.81057 21.9291 5.39158 21.7717 10.5981C21.7087 15.3943 22.7087 26.1212 22.8898 28.0042ZM5.6063 39.1496C7.96851 41.4511 12.5591 43.7044 17.4961 45.4747C18.685 45.9012 19.8583 46.2795 21.0866 46.6577C21.6772 46.1105 22.2835 45.5633 22.8976 45.0482C24.1024 43.9619 25.3386 42.8513 26.5118 41.6845C22.7795 36.8562 19.6457 31.8508 20.8583 25.1073C16.5103 26.1041 12.3237 27.73 8.4252 29.9356C6.91339 32.736 6.07874 36.7838 5.6063 39.1496ZM18.9921 56.5879H35.0394C34.1912 55.3305 33.7481 53.8339 33.7717 52.3068C33.767 50.4954 34.2403 48.7163 35.1417 47.1566C32.5058 48.0274 29.8245 48.7474 27.1102 49.3133H27H26.8898C24.1888 48.7459 21.5206 48.0259 18.8976 47.1566C19.7862 48.7195 20.2433 50.4994 20.2205 52.3068C20.2469 53.8331 19.8065 55.3298 18.9606 56.5879H18.9921ZM41.6929 63.0257V57.7226H12.3386V62.9855L41.6929 63.0257Z" fill="url(#paint0_linear)"/>
</g>
<defs>
<linearGradient id="paint0_linear" x1="56.1024" y1="80.5767" x2="0.0264062" y2="25.6997" gradientUnits="userSpaceOnUse">
<stop stop-color="#BF1E8E"/>
<stop offset="0.5" stop-color="#ED1B30"/>
<stop offset="1" stop-color="#F4783D"/>
</linearGradient>
<clipPath id="clip0">
<rect width="54" height="90" fill="white"/>
</clipPath>
</defs>
</svg>
