<svg width="80" height="82" viewBox="0 0 80 82" fill="none" xmlns="http://www.w3.org/2000/svg">
<g clip-path="url(#clip0)">
<path d="M79.9295 32.0274C79.0804 29.8041 77.7567 27.7896 76.0494 26.1224C78.4278 23.7704 79.9899 19.3466 79.9899 14.3323C79.9899 6.73584 76.5936 0.770745 72.1592 0.770745C67.7249 0.770745 64.3286 6.77587 64.3286 14.3523C64.3286 19.5268 65.9814 24.0806 68.4908 26.3626C67.3822 29.5053 64.3487 32.0274 60.2671 33.1284C55.6815 34.3594 51.0355 33.4386 48.1733 30.7263L48.002 30.6062C45.3888 29.3416 42.6494 28.352 39.8287 27.6537L37.1882 26.893L37.027 23.7704L37.7123 23.9705C38.5863 24.2792 39.5217 24.3775 40.4414 24.2574C41.3612 24.1374 42.2392 23.8024 43.0033 23.28C46.0872 20.9079 46.3593 14.8828 46.3593 8.39725C46.3419 7.44814 46.1165 6.51418 45.6988 5.66033C45.2811 4.80649 44.6811 4.05326 43.9405 3.45303C40.7155 0.620616 35.0416 -0.370229 31.1111 0.120189C24.6107 0.930881 23.5525 6.26544 23.3913 11.9103C23.2804 15.7235 23.7944 22.5994 24.1975 27.2133C21.4462 27.5536 13.4845 28.7546 7.57873 32.0474L7.36709 32.2176C-1.14891 42.5464 -0.836485 61.4425 1.19929 68.8088L1.29 69.1091L1.57218 69.2492C5.31538 71.0661 9.24966 72.4659 13.3031 73.4228C13.3031 75.2944 13.414 79.3578 13.414 79.548V80.0985L13.9582 80.2085C20.3271 81.4543 26.807 82.0545 33.2981 82.0001C40.3527 82.0001 46.9942 81.3495 51.1363 80.0584L51.5999 79.9083V79.4179C52.0479 72.3262 51.9805 65.2117 51.3983 58.1297C65.5077 57.4391 78.7503 45.599 79.9597 32.3777V32.2076L79.9295 32.0274ZM65.7596 14.3523C65.7596 7.75671 68.6823 2.19196 72.1592 2.19196C75.6362 2.19196 78.6092 7.75671 78.6092 14.3523C78.6092 20.2674 76.2711 25.4218 73.1771 26.3626L72.6732 26.5127V36.201C72.6706 36.3223 72.621 36.4379 72.5346 36.5237C72.4482 36.6095 72.3318 36.6588 72.2096 36.6614C72.0867 36.6614 71.9688 36.6129 71.8818 36.5265C71.7949 36.4402 71.746 36.3231 71.746 36.201V26.5127L71.232 26.3626C68.0877 25.4218 65.7596 20.2674 65.7596 14.3523ZM51.2774 56.7085C50.8851 53.0047 50.2658 49.3281 49.423 45.6991L48.0322 46.0394C50.2293 55.5275 50.9247 65.6661 50.2494 78.8874C42.2777 81.1794 25.7899 81.2194 14.8249 78.9775C14.7644 77.4262 14.704 75.1242 14.7241 73.7831C17.7019 74.4546 20.7413 74.8201 23.7944 74.874H24.1169C33.1872 74.7639 37.3595 70.6504 37.6921 61.6027C38.8991 60.6359 39.8775 59.4177 40.5584 58.0342C41.2393 56.6507 41.606 55.1355 41.6327 53.5958C41.6327 50.4131 40.3527 48.8618 39.2845 48.1212C38.4364 47.6137 37.4841 47.3025 36.4983 47.2107C35.5126 47.1188 34.5186 47.2487 33.5903 47.5907C33.5903 47.3605 33.5198 47.1403 33.4694 46.9201C36.9564 45.9193 42.2676 41.4855 42.0962 35.7406V35.07H41.4311C40.187 35.0332 38.9514 35.2856 37.8229 35.8068C36.6943 36.3281 35.704 37.104 34.9307 38.0726C33.9229 39.3937 32.9856 41.6957 34.0338 45.2487C33.7074 45.3911 33.3705 45.5082 33.026 45.599C32.6969 44.8958 32.1446 44.3191 31.4538 43.9576L30.8188 45.2287C31.2083 45.4791 31.5345 45.8152 31.7722 46.2109C32.0098 46.6066 32.1526 47.0513 32.1895 47.5106C31.3096 47.2255 30.3778 47.1342 29.4588 47.2431C28.5398 47.352 27.6558 47.6585 26.8682 48.1412C25.7999 48.8818 24.52 50.4331 24.52 53.6159C24.5256 55.233 24.9305 56.8242 25.6992 58.2498C23.6835 57.6993 21.6679 57.0588 19.7732 56.3482C19.7076 53.6089 19.9407 50.8706 20.4686 48.1812L19.0678 47.911C18.4799 50.8759 18.2465 53.8994 18.3724 56.9187V57.3691L18.7957 57.5292C24.4357 59.6159 30.3053 61.0304 36.2812 61.7428C35.9284 69.9198 32.3608 73.3127 24.127 73.4128H23.8146C16.4175 73.137 9.15896 71.3375 2.49937 68.1282C0.604684 60.822 0.403122 43.0368 8.39506 33.2184C13.0209 30.6763 19.6725 29.215 24.3185 28.6345C24.4898 30.4761 24.6208 31.7472 24.6309 31.9073L26.0519 31.7672C26.0519 31.6271 24.641 17.8253 24.8123 11.9503C24.9836 6.07527 26.2031 2.16193 31.2925 1.53139C34.8199 1.09102 40.1109 1.99179 42.9932 4.53396C43.582 5.00072 44.0598 5.59078 44.3925 6.26203C44.7253 6.93329 44.9047 7.66921 44.9181 8.41727C44.9181 14.2923 44.6964 20.1973 42.0862 22.179C41.4988 22.5672 40.8266 22.8105 40.1254 22.8889C39.4243 22.9672 38.7145 22.8782 38.0549 22.6294C35.8075 22.0289 32.2197 20.6277 32.1794 20.6277L31.6654 21.9488C31.7662 21.9488 33.681 22.7095 35.5455 23.35L35.9385 31.3569L37.3696 31.2868L37.2285 28.4744L39.4054 29.0249C42.104 29.6992 44.7274 30.6414 47.2361 31.8373C49.7394 34.0168 52.9784 35.1784 56.3064 35.09C57.7844 35.0887 59.2555 34.8901 60.6803 34.4995C65.0542 33.3285 68.3497 30.6462 69.7506 27.2433C69.9381 27.354 70.1335 27.451 70.3351 27.5336V36.201C70.3161 36.459 70.3509 36.718 70.4373 36.962C70.5236 37.2061 70.6597 37.4298 70.837 37.6192C71.0144 37.8087 71.2291 37.9598 71.4679 38.0631C71.7066 38.1664 71.9643 38.2197 72.2247 38.2197C72.4852 38.2197 72.7428 38.1664 72.9816 38.0631C73.2204 37.9598 73.4351 37.8087 73.6124 37.6192C73.7898 37.4298 73.9259 37.2061 74.0122 36.962C74.0986 36.718 74.1334 36.459 74.1144 36.201V27.5336C74.4235 27.3994 74.7203 27.2386 75.0013 27.0532C76.5871 28.5595 77.819 30.3946 78.6092 32.4278C77.289 44.9284 64.6813 56.108 51.2774 56.7085ZM27.6543 58.7102C26.5298 57.2225 25.9152 55.416 25.9007 53.5558C25.9007 51.5541 26.4953 50.0328 27.6342 49.2421C28.773 48.4515 30.4056 48.3814 32.3003 48.9619C32.3003 49.3022 32.3003 49.6358 32.3003 49.9627C32.0502 49.9401 31.8035 49.8898 31.5646 49.8126L31.091 51.1538C31.7449 51.347 32.4244 51.4415 33.1066 51.434C33.79 51.4492 34.4712 51.3511 35.1222 51.1437L34.6687 49.8426C34.3754 49.9394 34.0703 49.9966 33.7617 50.0128C33.7617 49.6825 33.7617 49.3422 33.7617 49.0119C35.6866 48.3914 37.3595 48.4715 38.4883 49.2621C39.617 50.0528 40.2318 51.5441 40.2318 53.5758C40.2043 54.8832 39.894 56.1693 39.3219 57.3471C38.7498 58.5248 37.9293 59.5666 36.9161 60.4016C33.7973 60.0283 30.7044 59.4668 27.6543 58.7202V58.7102ZM36.0393 38.8633C36.5993 38.1665 37.2985 37.5925 38.0929 37.1773C38.8873 36.7622 39.7597 36.5149 40.6551 36.4512C40.4233 39.8841 37.803 42.8967 35.2935 44.458C34.9795 43.5325 34.8834 42.5478 35.0127 41.5796C35.142 40.6114 35.4932 39.6855 36.0393 38.8733V38.8633ZM68.8738 20.1373L67.866 20.3975C67.7753 20.0772 67.5636 19.2065 67.4931 18.8662L68.5009 18.656C68.5916 19.0163 68.7931 19.827 68.8738 20.1373ZM68.6319 22.139L69.5389 21.7086C70.2847 23.2399 71.222 24.0907 72.1592 24.0907C73.6206 24.0907 75.1827 21.9188 75.8478 18.4058L71.3933 14.012L72.0988 13.3115L76.0393 17.2248C76.1641 16.2724 76.2247 15.3128 76.2207 14.3523C76.2207 8.51736 74.1245 4.59401 72.1895 4.59401C70.2545 4.59401 68.2792 8.23712 68.1582 13.7218L72.8849 18.4058L72.1794 19.1164L68.1482 15.113C68.1482 15.6735 68.1482 16.2239 68.259 16.7544L67.2512 16.8645C67.1613 16.0268 67.1175 15.1848 67.1202 14.3423C67.1202 8.3372 69.3474 3.59315 72.1592 3.59315C74.971 3.59315 77.1983 8.31719 77.1983 14.3423C77.1983 20.3675 74.971 25.1015 72.1592 25.1015C70.8188 25.1115 69.5389 24.0706 68.6319 22.169V22.139ZM74.3059 13.1313L70.6777 9.52822L71.3832 8.81761L75.0214 12.4307L74.3059 13.1313Z" fill="url(#paint0_linear)"/>
</g>
<defs>
<linearGradient id="paint0_linear" x1="67.352" y1="64.295" x2="15.9393" y2="12.525" gradientUnits="userSpaceOnUse">
<stop stop-color="#BF1E8E"/>
<stop offset="0.5" stop-color="#ED1B30"/>
<stop offset="1" stop-color="#F4783D"/>
</linearGradient>
<clipPath id="clip0">
<rect width="80" height="82" fill="white"/>
</clipPath>
</defs>
</svg>
