<svg width="112" height="64" viewBox="0 0 112 64" fill="none" xmlns="http://www.w3.org/2000/svg">
<g clip-path="url(#clip0)">
<path d="M8.54628 55.5642H12.8318V56.7121H8.54628V55.5642ZM112 57.3309V62.6391C111.998 62.8563 111.945 63.07 111.843 63.2626C111.741 63.4551 111.594 63.6209 111.415 63.7463V63.9987H0V62.8426H3.29654C3.27594 62.7186 3.27594 62.5921 3.29654 62.4681L4.51626 55.0513C4.55825 54.7952 4.66376 54.5534 4.82339 54.3474C4.98301 54.1414 5.19178 53.9776 5.43105 53.8708L7.90346 52.7717C7.99644 52.7336 8.0729 52.6645 8.11944 52.5763C8.16598 52.4882 8.17964 52.3867 8.15802 52.2896C8.13639 52.1925 8.08087 52.106 8.00118 52.0453C7.92148 51.9846 7.8227 51.9535 7.72215 51.9575C7.26989 51.9271 6.84619 51.7282 6.53672 51.401C6.22725 51.0738 6.05511 50.6427 6.05511 50.1949C6.05511 49.7471 6.22725 49.316 6.53672 48.9888C6.84619 48.6616 7.26989 48.4626 7.72215 48.4323H10.1946C10.3429 47.7728 10.5242 47.0645 10.7467 46.3073L8.73584 42.7821V42.5867C8.73584 42.3832 9.4858 37.5064 10.6808 35.3408L10.8456 35.0396H11.1918C11.4376 35.0432 11.6827 35.065 11.9252 35.1047L12.2467 31.6771L12.362 31.5387C12.6752 31.1805 19.9853 22.6971 27.1388 22.6971H27.5673L27.7074 23.0798C28.2358 25.0005 28.1871 27.0315 27.5673 28.9253L27.4684 29.2184L25.2185 29.7802L26.3888 32.4099L26.2487 32.6623C21.7984 40.6083 16.5569 45.6886 11.8099 46.7226C11.6368 47.325 11.4967 47.8868 11.3648 48.4323H13.5982C14.0511 48.4571 14.4776 48.651 14.7912 48.9747C15.1049 49.2984 15.2823 49.7278 15.2875 50.1759C15.2928 50.6239 15.1255 51.0572 14.8195 51.388C14.5135 51.7188 14.0917 51.9224 13.6394 51.9575C13.5396 51.9556 13.4423 51.9881 13.3642 52.0495C13.2861 52.1109 13.2321 52.1973 13.2116 52.2938C13.1911 52.3903 13.2053 52.4908 13.2518 52.5781C13.2983 52.6653 13.3742 52.7338 13.4664 52.7717L15.9388 53.8708C16.1789 53.9764 16.3884 54.1398 16.5482 54.346C16.708 54.5522 16.813 54.7947 16.8536 55.0513L18.131 62.4681C18.1474 62.5925 18.1474 62.7183 18.131 62.8426H35.8499V61.7598C28.3503 61.1818 25.6801 56.6877 25.5482 56.4842L25.474 56.3458V56.1748C25.474 48.6928 26.9163 35.007 36.5999 27.1831L36.7564 27.0935C40.8321 25.5039 45.0885 24.4104 49.4316 23.8369L49.5141 19.9779C47.5444 18.1949 46.6378 15.093 46.6378 10.5175C46.6378 3.89034 50.025 -0.0664062 55.7033 -0.0664062C61.3816 -0.0664062 64.7688 3.89034 64.7688 10.5175C64.7688 15.1174 63.8623 18.1949 61.8843 19.9779L61.9667 23.8369C66.3101 24.4093 70.5666 25.5029 74.6419 27.0935L74.7985 27.1831C84.3915 34.9012 85.8996 48.416 85.9326 55.9468H88.8171C89.1841 54.1768 89.1841 52.3516 88.8171 50.5816H87.6798V49.4581H106.454C107.218 49.4559 107.967 49.6775 108.604 50.0947C109.242 50.512 109.74 51.1063 110.036 51.8028C110.332 52.4993 110.413 53.2668 110.268 54.0087C110.123 54.7505 109.76 55.4333 109.223 55.9713H110.632C110.995 55.9755 111.342 56.1204 111.597 56.3747C111.853 56.629 111.998 56.9723 112 57.3309ZM10.9116 38.1333L12.9966 40.3722C15.3372 35.1861 18.8974 29.6825 23.5043 26.6783L24.1472 27.6797C21.9326 29.201 20.0052 31.094 18.4524 33.2729C20.1007 33.1182 21.5182 32.9391 21.5347 32.9309L21.683 34.0789C21.683 34.0789 19.6886 34.3313 17.5623 34.5022C15.3155 37.8972 13.5337 41.571 12.2631 45.4281C16.4827 44.1824 21.0896 39.5011 25.1361 32.3529L23.6444 28.9986L26.6113 28.2577C27.0107 26.8245 27.0643 25.3187 26.7679 23.8613C20.7435 24.1789 14.4059 31.091 13.4252 32.1493L13.112 35.4059C13.3593 35.5136 13.5942 35.6474 13.8125 35.8049L13.112 36.733C12.6577 36.4286 12.1336 36.2411 11.5873 36.1875C11.3141 36.8189 11.0883 37.4692 10.9116 38.1333ZM11.2494 44.7767C11.6038 43.7346 12.0159 42.6355 12.4939 41.5202L10.5737 39.4522C10.2522 40.8119 10.0462 42.0738 9.97204 42.546L11.2494 44.7767ZM90.0203 55.9468H101.558V52.7798H95.1464V51.6237H106.182V52.7798H105.638V55.9713H106.462C107.156 55.9335 107.809 55.6343 108.287 55.1354C108.765 54.6365 109.032 53.9756 109.032 53.2886C109.032 52.6017 108.765 51.9408 108.287 51.4419C107.809 50.9429 107.156 50.6438 106.462 50.606H89.9791C90.1734 51.6587 90.2617 52.7277 90.2428 53.7975H98.1298V54.9536H90.1604C90.1357 55.2955 90.0862 55.6293 90.0203 55.9713V55.9468ZM102.728 57.9333L103.668 57.2332L104.492 57.8275V52.7798H102.753L102.728 57.9333ZM55.7033 20.8246C61.3074 20.8246 63.5903 17.8611 63.5903 10.5826C63.5903 4.59051 60.7141 1.15481 55.7033 1.15481C50.6926 1.15481 47.7999 4.59051 47.7999 10.5826C47.7999 17.8611 50.1074 20.8246 55.7033 20.8246ZM37.4405 60.6689C38.8085 60.6689 40.737 58.9917 41.9897 56.6796C43.399 54.0906 43.638 51.5342 42.616 49.7837C41.0255 49.4988 36.2949 48.302 34.9269 46.9749L35.751 46.1608C36.6654 46.8115 37.6895 47.2967 38.7756 47.5937V39.2731L39.2701 39.1917C39.8222 39.1022 52.1595 37.1808 55.7033 41.7644C59.2471 37.1808 71.5926 39.1022 72.186 39.1917L72.6805 39.2731V47.5856C73.7659 47.2866 74.7896 46.8016 75.7051 46.1527L76.5292 46.9668C75.1694 48.2939 70.4306 49.4907 68.8483 49.7756C67.8346 51.526 68.0241 54.0824 69.4746 56.6714C70.7438 58.9836 72.6558 60.6607 74.0238 60.6607C81.3916 60.6607 84.3008 56.7854 84.8035 56.0282C84.8035 43.7591 80.9054 33.6148 74.1722 28.1519C70.2646 26.6475 66.1893 25.6089 62.0327 25.0581L62.0739 26.9714H60.9036L60.78 20.8409C59.2201 21.6589 57.4679 22.0523 55.7033 21.9807C53.961 22.0526 52.2302 21.6707 50.6843 20.8734L50.5525 27.0039H49.3904V25.0907C45.2312 25.6416 41.1532 26.6802 37.2427 28.1845C30.5177 33.6474 26.6525 43.7916 26.6113 56.0608C27.1965 56.7935 30.0727 60.6689 37.4405 60.6689ZM43.0116 57.2332C42.2321 58.707 41.1282 59.9895 39.781 60.9864H39.9458V62.8426H55.1182V42.9938C53.2309 39.2243 43.9759 39.6883 39.9458 40.2582V47.9519C40.9656 48.258 42.0031 48.5026 43.0528 48.6847H43.3166L43.4567 48.9045C44.8659 51.0538 44.6929 54.1557 43.0116 57.2332ZM56.2885 62.8426H71.469V60.9864H71.6339C70.289 59.987 69.1855 58.7051 68.4032 57.2332C66.755 54.1557 66.5572 51.0538 67.9582 48.937L68.1066 48.7172H68.3703C69.42 48.5352 70.4575 48.2905 71.4773 47.9845V40.2582C67.439 39.6883 58.1675 39.2324 56.2967 43.0182L56.2885 62.8426ZM72.6393 62.8426H74.4112V61.8087H73.9744C73.5139 61.8012 73.0597 61.7015 72.6393 61.5156V62.8426ZM75.5815 62.8426H79.8917C79.8836 62.775 79.8836 62.7067 79.8917 62.6391V60.8806C78.5085 61.3582 77.0676 61.6539 75.6062 61.7598L75.5815 62.8426ZM37.0037 62.8426H38.7756V61.5319C38.3552 61.7178 37.901 61.8175 37.4405 61.825H37.0037V62.8426ZM7.72215 50.8096H13.6477C13.8116 50.8096 13.9688 50.7452 14.0847 50.6307C14.2007 50.5162 14.2658 50.3609 14.2658 50.199C14.2658 50.037 14.2007 49.8817 14.0847 49.7672C13.9688 49.6527 13.8116 49.5884 13.6477 49.5884H7.72215C7.55822 49.5884 7.401 49.6527 7.28509 49.7672C7.16917 49.8817 7.10405 50.037 7.10405 50.199C7.10405 50.3609 7.16917 50.5162 7.28509 50.6307C7.401 50.7452 7.55822 50.8096 7.72215 50.8096ZM16.7876 62.8426C16.8114 62.8436 16.835 62.8389 16.8565 62.829C16.878 62.8191 16.8968 62.8042 16.9113 62.7857C16.9203 62.7651 16.925 62.7429 16.925 62.7205C16.925 62.6981 16.9203 62.6759 16.9113 62.6554L15.6833 55.2385C15.6749 55.1696 15.6484 55.1041 15.6065 55.0484C15.5645 54.9927 15.5086 54.9488 15.4443 54.921L12.9719 53.8219C12.6922 53.6979 12.4546 53.4967 12.288 53.2425C12.1213 52.9883 12.0325 52.6919 12.0324 52.389C12.0363 52.2457 12.0585 52.1035 12.0983 51.9657H9.21383C9.25766 52.1026 9.27989 52.2454 9.27977 52.389C9.27962 52.6919 9.19086 52.9883 9.02418 53.2425C8.8575 53.4967 8.61999 53.6979 8.34025 53.8219L5.86784 54.921C5.8033 54.9497 5.74694 54.9936 5.7038 55.049C5.66066 55.1045 5.63208 55.1695 5.6206 55.2385L4.41737 62.688C4.40579 62.7078 4.3997 62.7302 4.3997 62.7531C4.3997 62.776 4.40579 62.7984 4.41737 62.8182C4.43313 62.8374 4.45333 62.8527 4.47628 62.8626C4.49922 62.8725 4.52424 62.8768 4.54923 62.8752L16.7876 62.8426ZM110.607 62.8426C110.663 62.8427 110.716 62.8215 110.756 62.7836C110.796 62.7456 110.819 62.6938 110.821 62.6391V57.3309C110.821 57.2747 110.799 57.2209 110.759 57.1812C110.719 57.1415 110.664 57.1192 110.607 57.1192H105.662V60.1641L103.693 58.7068L101.558 60.2455V57.1192H85.3969C85.0224 57.5944 84.6029 58.0333 84.1442 58.43V61.9634H82.974V59.3337C82.3596 59.7466 81.7118 60.1088 81.0372 60.4165V62.6391C81.0372 62.6931 81.0589 62.7449 81.0976 62.783C81.1362 62.8212 81.1886 62.8426 81.2433 62.8426H110.607ZM101.023 59.985C101.023 61.5237 97.8166 61.9308 95.9211 61.9308C94.0256 61.9308 90.8197 61.5237 90.8197 59.985C90.8197 58.4463 94.0256 58.031 95.9211 58.031C97.8166 58.031 101.031 58.4463 101.031 59.985H101.023ZM99.8275 59.985C99.572 59.7163 98.2699 59.1708 95.9211 59.1708C93.5723 59.1708 92.2702 59.7 92.0147 59.985C92.2702 60.2537 93.5806 60.7991 95.9211 60.7991C98.2617 60.7991 99.5803 60.2455 99.8358 59.985H99.8275ZM107.706 61.9634H108.877V58.0066H107.715L107.706 61.9634Z" fill="url(#paint0_linear)"/>
</g>
<defs>
<linearGradient id="paint0_linear" x1="86.7897" y1="88.3254" x2="21.6059" y2="22.3418" gradientUnits="userSpaceOnUse">
<stop stop-color="#BF1E8E"/>
<stop offset="0.5" stop-color="#ED1B30"/>
<stop offset="1" stop-color="#F4783D"/>
</linearGradient>
<clipPath id="clip0">
<rect width="112" height="64" fill="white"/>
</clipPath>
</defs>
</svg>
