<svg width="112" height="80" viewBox="0 0 112 80" fill="none" xmlns="http://www.w3.org/2000/svg">
<path d="M95.2733 78.8448C95.2569 77.6068 95.1656 76.3708 94.9999 75.1434C96.8805 74.3299 98.612 73.5164 100.112 72.7761L100.435 72.6134V72.2554C100.435 62.3795 97.2782 47.7608 93.5501 40.3417L93.4673 40.179L93.3099 40.0976C89.1658 37.76 84.702 36.0176 80.0544 34.9237C80.3693 31.1979 80.7172 26.2355 80.6344 23.372C80.4935 18.735 79.6236 14.3583 74.2221 13.6994C70.9579 13.2927 66.2605 14.1062 63.5763 16.4328C62.9614 16.9266 62.464 17.5467 62.1191 18.2493C61.7742 18.952 61.5901 19.7203 61.5797 20.5003C61.5797 25.8206 61.7951 30.7667 64.3965 32.7029C65.0284 33.1329 65.7555 33.4088 66.5177 33.5078C67.2798 33.6069 68.055 33.5261 68.779 33.2723L69.3507 33.1096L69.2678 34.8098C63.8706 36.5481 58.7604 39.0502 54.0987 42.2371L53.9164 42.3592L53.8667 42.5625C52.0222 49.3717 51.2181 56.4121 51.4807 63.4533L35.1849 69.0258L37.8442 74.216H33.7765L25.6824 52.5442L3.86064 48.973L0.977587 50.6488L10.1404 74.8993V78.8448H0V80H112V78.8448H95.2733ZM94.0969 78.8448H82.3741C86.3345 78.2902 90.1966 77.1949 93.8484 75.5908C93.9975 76.7623 94.0472 78.0964 94.0638 78.8448H94.0969ZM32.5255 74.216H13.9099L4.87137 50.3071L24.7959 53.5611L32.5255 74.216ZM3.67009 50.4373L12.6589 74.216H11.1346L2.41911 51.1531L3.67009 50.4373ZM11.3168 75.3874H34.1161V78.8611H11.3168V75.3874ZM35.2925 78.8448V75.3712H55.4076V78.8448H35.2925ZM39.1615 74.216L36.8335 69.6848L52.6986 64.2668V63.8357C52.3896 56.8316 53.1577 49.8218 54.9768 43.0425C59.3568 40.0792 64.1361 37.73 69.1767 36.0626L69.0193 39.2272L70.1957 39.2841L70.5188 32.7761C72.1012 32.2554 73.667 31.6616 73.7498 31.629L73.3273 30.5552C73.3273 30.5552 70.3117 31.7023 68.4477 32.1822C67.8977 32.388 67.3058 32.4622 66.7208 32.3985C66.1359 32.3349 65.5748 32.1352 65.0841 31.8162C62.9135 30.1891 62.7313 25.3081 62.7313 20.5084C62.7433 19.8931 62.8928 19.2879 63.1691 18.7355C63.4453 18.1831 63.8417 17.6969 64.3302 17.3114C66.7245 15.2369 71.1319 14.4966 74.0564 14.8709C78.323 15.3915 79.2923 18.6699 79.4331 23.4289C79.5739 28.1879 78.4224 39.5933 78.4058 39.699L79.5739 39.8129C79.5739 39.6502 79.7479 38.1859 79.9302 36.0952C84.3444 37.1603 88.5876 38.8193 92.5394 41.025C96.0686 48.1513 99.1671 62.412 99.2251 71.9382C94.1549 74.3787 86.6656 77.9256 79.284 77.9256C72.6563 77.9256 70.8336 74.0452 68.9033 69.4733C73.9735 68.4889 79.7396 67.0978 84.8015 64.4133L85.1743 64.2099L85.0915 63.795C84.5795 61.212 83.7447 58.701 82.6061 56.3189L81.5457 56.807C82.5651 58.979 83.3295 61.258 83.824 63.5998C78.762 66.203 72.9628 67.529 67.9423 68.4808L67.2298 68.6109L67.6523 69.6116C69.4004 73.7279 71.2064 77.9662 76.8566 78.8855H59.4588L57.4705 55.3834L56.3355 55.4729L58.3073 78.8448H56.6503V74.216H39.1615ZM11.4162 54.6919L11.5819 53.5448L20.9518 54.879L20.7862 56.026L11.4162 54.6919ZM7.27391 28.3588H10.215L15.542 40.0244L20.869 28.3506H23.81C24.208 28.3467 24.6046 28.3058 24.9947 28.2286V29.6929C24.9904 30.4912 25.1465 31.2826 25.4541 32.0215C25.7617 32.7605 26.2147 33.4327 26.7873 33.9994C27.3599 34.5662 28.0407 35.0165 28.7908 35.3245C29.5409 35.6324 30.3455 35.7921 31.1585 35.7942H47.7278C48.8604 35.7941 49.9706 35.4842 50.9339 34.8993C54.3555 36.4043 59.318 35.4606 60.6104 32.9876L61.0329 32.1741H60.105C55.9627 32.0439 53.8998 29.6278 53.8998 24.999V13.4635C53.8977 12.6655 53.7354 11.8757 53.4224 11.1392C53.1094 10.4027 52.6517 9.73403 52.0755 9.17125C51.4993 8.60847 50.8159 8.16265 50.0642 7.85923C49.3125 7.55581 48.5074 7.40075 47.6946 7.40289H31.1254C30.7304 7.4037 30.3365 7.44184 29.949 7.51678V6.06061C29.9468 4.45951 29.3004 2.92412 28.1505 1.78892C27.0007 0.653732 25.4405 0.0107298 23.81 0L7.2822 0C5.64594 0.00215233 4.07732 0.64137 2.92032 1.77749C1.76331 2.91361 1.11233 4.45389 1.11014 6.06061V22.3307C1.12324 23.9303 1.77903 25.4602 2.93486 26.5876C4.09069 27.7149 5.65308 28.3485 7.2822 28.3506L7.27391 28.3588ZM47.6946 8.55806C49.013 8.55806 50.2773 9.07231 51.2095 9.98768C52.1417 10.9031 52.6654 12.1446 52.6654 13.4391V24.942C52.6654 29.7254 54.8526 32.6134 58.8623 33.1747C57.2551 34.4519 53.6182 34.9481 51.0996 33.6953L50.7848 33.5408L50.5031 33.736C49.671 34.3028 48.6825 34.6065 47.6698 34.6065H31.1005C29.7822 34.6065 28.5179 34.0922 27.5857 33.1769C26.6534 32.2615 26.1297 31.02 26.1297 29.7254V13.4635C26.1297 12.169 26.6534 10.9275 27.5857 10.0121C28.5179 9.09672 29.7822 8.58247 31.1005 8.58247L47.6946 8.55806ZM2.28656 6.06061C2.28656 4.76608 2.81027 3.52457 3.74247 2.6092C4.67467 1.69383 5.93901 1.17958 7.25734 1.17958H23.8266C25.1449 1.17958 26.4093 1.69383 27.3415 2.6092C28.2737 3.52457 28.7974 4.76608 28.7974 6.06061V7.86659C27.6698 8.32502 26.706 9.10141 26.0277 10.0976C25.3493 11.0938 24.987 12.2651 24.9865 13.4635V27.049C24.5987 27.1427 24.2011 27.1919 23.8018 27.1954H20.1068L15.542 37.2097L10.9771 27.1954H7.2822C5.96386 27.1954 4.69952 26.6812 3.76732 25.7658C2.83512 24.8505 2.31141 23.6089 2.31141 22.3144L2.28656 6.06061ZM11.3997 17.3358H19.6843L21.3826 21.7856L22.4845 21.3789L16.4864 5.69453H14.6058L8.62431 21.3789L9.72616 21.7856L11.3997 17.3358ZM15.426 6.87411H15.6662L19.2286 16.1806H11.8636L15.426 6.87411ZM38.623 24.6817C37.0659 26.1676 35.1548 27.2471 33.064 27.8218L33.3539 28.9363C35.6484 28.3188 37.7462 27.1405 39.4514 25.5115C41.1614 27.1429 43.2651 28.3213 45.5655 28.9363L45.8555 27.8218C43.7646 27.2471 41.8535 26.1676 40.2965 24.6817C41.9596 22.9789 43.1071 20.8549 43.6103 18.5479H46.4768V17.3927H40.0148V14.7814H38.8384V17.3927H32.3846V18.5479H35.2511C35.7708 20.856 36.929 22.9785 38.5981 24.6817H38.623ZM39.4514 23.8682C38.001 22.3786 36.9678 20.5457 36.4524 18.5479H42.4173C41.9065 20.5434 40.8759 22.3741 39.4266 23.8601L39.4514 23.8682Z" fill="url(#paint0_linear)"/>
<defs>
<linearGradient id="paint0_linear" x1="91.9843" y1="99.6543" x2="-0.666566" y2="5.29964" gradientUnits="userSpaceOnUse">
<stop stop-color="#BF1E8E"/>
<stop offset="0.5" stop-color="#ED1B30"/>
<stop offset="1" stop-color="#F4783D"/>
</linearGradient>
</defs>
</svg>
