<svg width="80" height="80" viewBox="0 0 80 80" fill="none" xmlns="http://www.w3.org/2000/svg">
<g clip-path="url(#clip0)">
<path d="M76.0246 11.1944V13.3533L67.0126 17.4873V13.8971H64.1458V9.89905H58.9508V6.88456H61.77C62.1622 7.38497 62.6617 7.78892 63.231 8.06595C63.8003 8.34298 64.4245 8.48584 65.0565 8.48376H74.3616C75.4212 8.40324 76.4116 7.92139 77.1343 7.13476C77.8569 6.34813 78.2585 5.31482 78.2585 4.24188C78.2585 3.16894 77.8569 2.13563 77.1343 1.349C76.4116 0.562363 75.4212 0.0805144 74.3616 0H65.0328C64.4049 0.00211985 63.7856 0.146979 63.2207 0.423828C62.6559 0.700676 62.1601 1.10241 61.77 1.5992H51.1662C50.7251 1.5992 50.3021 1.77611 49.9902 2.09102C49.6784 2.40592 49.5032 2.83302 49.5032 3.27836V5.1974C49.5031 5.64348 49.6781 6.07141 49.9898 6.38758C50.3014 6.70376 50.7244 6.88244 51.1662 6.88456H52.4887V9.86707H33.7914V11.6902C30.0377 12.9535 29.3566 16.7916 29.2379 20.8296C29.1507 23.8441 29.5388 29.2334 29.8556 32.9515C26.7631 33.2562 23.7138 33.9079 20.7643 34.8946H20.6613L20.5821 34.9585C14.6744 39.6442 4.22102 53.941 0.910787 63.3603C-1.46498 70.1729 0.831595 74.8746 7.99057 77.7531L8.46573 77.937L8.7033 77.4813C11.6069 71.9575 15.1535 66.8035 19.2676 62.1289C19.1488 65.5192 19.1884 68.2059 19.2676 71.5002C19.2676 73.5152 19.323 75.7541 19.323 78.5127V78.9925L19.7902 79.0645C24.3512 79.7478 28.9591 80.0606 33.5697 80C39.5595 80.0282 45.5436 79.6194 51.475 78.7766L51.9502 78.7046V78.2169C51.9502 68.1739 51.9502 61.3373 50.7227 54.1489C55.4742 53.3493 57.7708 52.9255 62.1026 51.918L62.3085 51.8701L62.4273 51.7022C65.8009 47.0645 70.2357 36.5817 71.2018 28.9535V28.6817L71.0038 28.4818C69.8151 27.3319 68.4714 26.3575 67.0126 25.5872V25.1394L76.0246 29.2494V31.3763H79.9842V11.1944H76.0246ZM65.0328 1.13543H74.3616C75.1547 1.17597 75.9021 1.52263 76.4492 2.10375C76.9964 2.68488 77.3015 3.45605 77.3015 4.25787C77.3015 5.05969 76.9964 5.83086 76.4492 6.41199C75.9021 6.99311 75.1547 7.33977 74.3616 7.38031H65.0328C64.2396 7.33977 63.4923 6.99311 62.9451 6.41199C62.398 5.83086 62.0929 5.05969 62.0929 4.25787C62.0929 3.45605 62.398 2.68488 62.9451 2.10375C63.4923 1.52263 64.2396 1.17597 65.0328 1.13543ZM51.1662 5.74913C51.0948 5.74913 51.0241 5.73481 50.9583 5.70699C50.8924 5.67916 50.8327 5.63839 50.7826 5.58705C50.7325 5.53572 50.693 5.47483 50.6664 5.40793C50.6398 5.34104 50.6266 5.26947 50.6277 5.1974V3.31034C50.6266 3.23864 50.6398 3.16746 50.6665 3.101C50.6932 3.03454 50.7328 2.97417 50.783 2.92347C50.8332 2.87276 50.893 2.83275 50.9589 2.80581C51.0247 2.77887 51.0952 2.76554 51.1662 2.76662H61.0969C60.9154 3.24112 60.8214 3.74519 60.8197 4.25387C60.8215 4.76514 60.9154 5.27181 61.0969 5.74913H51.1662ZM53.6132 6.88456H57.8104V9.86707H53.6132V6.88456ZM34.9159 11.0025H63.045V31.6002H40.0793L40.0238 30.3848L40.5703 30.5367C41.2631 30.7874 42.005 30.8681 42.7348 30.7722C43.4646 30.6762 44.1613 30.4064 44.7675 29.985C45.2278 29.6351 45.6221 29.2045 45.9316 28.7136H60.1862V13.8971H45.3931C42.8114 11.7061 38.4242 10.9385 35.3673 11.3303C35.2155 11.3485 35.0648 11.3752 34.9159 11.4103V11.0025ZM40.1347 32.7356H57.0185C56.3295 33.903 55.3555 35.4143 54.4923 36.6377C49.8188 35.4306 45.0486 34.644 40.2377 34.2869L40.1347 32.7356ZM46.4701 27.5782C47.3887 25.1794 47.4917 21.6772 47.4917 17.983C47.4871 16.9074 47.1401 15.8617 46.5018 15.0005H59.0617V27.5542L46.4701 27.5782ZM70.1169 29.0975C69.0716 36.4298 64.9377 46.3128 61.675 50.8626C57.5016 51.8301 55.1971 52.2619 50.5881 53.0295C50.0708 50.3058 49.4073 47.6125 48.6004 44.9615L47.5154 45.2894C50.8336 56.3478 50.8732 64.024 50.8732 77.7371C42.6689 78.9765 28.834 79.3363 20.4317 78.033C20.4317 75.4823 20.4317 73.3873 20.3683 71.4843C20.3208 67.7741 20.2812 64.8316 20.4634 60.7936C22.6332 58.3726 24.9389 56.0794 27.3689 53.925L26.6324 53.0775C19.1646 59.6422 12.0452 68.5657 7.9193 76.4898C1.73439 73.8511 -0.158308 69.7891 1.97196 63.7441C5.21093 54.5247 15.3792 40.5877 21.184 35.982C24.0315 35.0334 26.9743 34.4059 29.9585 34.1109C30.1011 35.7101 30.2119 36.8696 30.2278 37.0135L31.3444 36.8936C31.3444 36.7816 30.2198 25.6432 30.3624 20.9015C30.5049 16.1599 31.4236 13.0015 35.502 12.4818C38.2975 12.1299 42.5105 12.8576 44.7991 14.8806C45.2673 15.2584 45.6471 15.736 45.9113 16.2792C46.1755 16.8225 46.3176 17.4179 46.3275 18.023C46.3275 22.7646 46.1533 27.5222 44.0785 29.1294C43.6102 29.4449 43.0738 29.6422 42.5143 29.7048C41.9548 29.7675 41.3886 29.6935 40.8633 29.4893C39.0815 29.0095 36.2305 27.8901 36.1989 27.8901L35.795 28.9455C35.8821 28.9855 37.3788 29.5692 38.8835 30.081L39.1923 36.4778L40.3169 36.4218L40.2693 35.4303C47.9035 36.1739 51.776 37.0295 54.5239 37.8291L54.8961 37.941L55.1258 37.6212C56.2028 36.1259 57.5016 34.063 58.2935 32.7356H64.1458V28.7376H66.9888V26.8586C68.1027 27.4784 69.1395 28.23 70.0773 29.0975H70.1169ZM65.9355 27.5782H64.1458V15.0245H65.8722V27.5782H65.9355ZM67.0522 23.8761V18.7346L76.0246 14.6007V27.986L67.0522 23.8761ZM78.931 30.2729H77.1492V12.3618H78.8756L78.931 30.2729Z" fill="url(#paint0_linear)"/>
</g>
<defs>
<linearGradient id="paint0_linear" x1="66.2127" y1="64.3278" x2="22.6205" y2="21.1542" gradientUnits="userSpaceOnUse">
<stop stop-color="#BF1E8E"/>
<stop offset="0.5" stop-color="#ED1B30"/>
<stop offset="1" stop-color="#F4783D"/>
</linearGradient>
<clipPath id="clip0">
<rect width="80" height="80" fill="white"/>
</clipPath>
</defs>
</svg>
